<?xml version="1.0" standalone="no"?>
<!DOCTYPE svg PUBLIC "-//W3C//DTD SVG 1.1//EN" "http://www.w3.org/Graphics/SVG/1.1/DTD/svg11.dtd" >
<svg>
<metadata>
Created by FontForge 20110222 at Mon Mar  7 13:27:20 2011
 By www-data
2010
</metadata>
<defs>
<font id="U.S.101" horiz-adv-x="840" >
  <font-face 
    font-family="U.S. 101"
    font-weight="400"
    font-stretch="normal"
    units-per-em="2048"
    panose-1="0 0 0 0 0 0 0 0 0 0"
    ascent="1685"
    descent="-363"
    x-height="1365"
    cap-height="1365"
    bbox="-25 -362 1516 1762"
    underline-thickness="130"
    underline-position="-137"
    unicode-range="U+0020-2122"
  />
    <missing-glyph />
    <glyph glyph-name="space" unicode=" " horiz-adv-x="314" 
 />
    <glyph glyph-name="exclam" unicode="!" horiz-adv-x="444" 
d="M285 412h-127l-49 953h225zM321 218v-218h-198v218h198z" />
    <glyph glyph-name="quotedbl" unicode="&#x22;" horiz-adv-x="741" 
d="M274 819h-152l-35 546h223zM619 819h-153l-35 546h223z" />
    <glyph glyph-name="numbersign" unicode="#" horiz-adv-x="904" 
d="M594 976l73 389h135l-73 -389h113l-26 -139h-113l-61 -325h123l-26 -140h-123l-69 -372h-135l70 372h-174l-70 -372h-135l70 372h-112l28 140h110l61 325h-118l29 139h115l73 389h134l-72 -389h173zM568 837h-173l-61 -325h174z" />
    <glyph glyph-name="dollar" unicode="$" 
d="M364 1509h109v-126q157 -19 276 -152l-140 -138q-80 105 -187 105q-67 0 -107 -40q-42 -42 -42 -115q0 -82 54 -139q34 -36 162 -124q153 -105 214 -189q74 -104 74 -248q0 -223 -166 -318q-55 -32 -138 -42v-156h-109v157q-175 21 -308 195l142 131q52 -64 90 -93
q62 -49 140 -49q71 0 108 49q36 46 36 114q0 87 -55 149q-39 44 -178 143q-135 96 -188 167q-76 102 -76 238q0 133 71 228q79 105 218 126v127z" />
    <glyph glyph-name="percent" unicode="%" horiz-adv-x="1100" 
d="M438 1140v-253q0 -239 -188 -239q-189 0 -189 239v253q0 239 189 239q188 0 188 -239zM183 1162v-297q0 -57 12 -78q16 -30 55 -30q38 0 54 30q12 21 12 78v297q0 57 -12 78q-16 30 -54 30q-39 0 -55 -30q-12 -21 -12 -78zM775 1365h113l-564 -1365h-114zM1038 478v-253
q0 -239 -188 -239q-189 0 -189 239v253q0 239 189 239q188 0 188 -239zM783 500v-297q0 -56 12 -78q15 -30 54 -30t55 30q12 21 12 78v297q0 57 -12 78q-16 30 -54 30q-40 0 -55 -30q-12 -21 -12 -78z" />
    <glyph glyph-name="ampersand" unicode="&#x26;" horiz-adv-x="961" 
d="M692 632l183 -23q-13 -191 -109 -338q42 -61 140 -87v-204q-137 7 -258 135q-56 -55 -98 -81q-79 -48 -170 -48q-127 0 -213 88q-99 101 -99 247q0 119 75 246q33 58 108 145q-90 185 -90 329q0 143 75 238q80 100 209 100q107 0 177 -73q78 -81 78 -207q0 -121 -82 -236
q-35 -49 -139 -175q67 -159 156 -267q46 86 57 211zM392 866q117 135 117 265q0 111 -80 111q-46 0 -69 -43q-22 -39 -22 -96q0 -110 54 -237zM343 530q-67 -97 -67 -182q0 -59 32 -106q36 -55 91 -55q65 0 128 68q-111 118 -184 275z" />
    <glyph glyph-name="quotesingle" unicode="'" horiz-adv-x="403" 
d="M281 819h-159l-35 546h229z" />
    <glyph glyph-name="parenleft" unicode="(" horiz-adv-x="537" 
d="M359 1450l120 -82q-76 -120 -124 -242q-100 -258 -100 -516q0 -257 100 -515q48 -123 124 -242l-120 -83q-91 122 -154 256q-141 297 -141 584q0 288 141 585q63 133 154 255z" />
    <glyph glyph-name="parenright" unicode=")" horiz-adv-x="537" 
d="M176 -230l-119 83q76 119 123 242q101 258 101 515q0 258 -101 516q-47 122 -123 242l119 82q92 -122 155 -255q141 -298 141 -585t-141 -584q-63 -133 -155 -256z" />
    <glyph glyph-name="asterisk" unicode="*" horiz-adv-x="627" 
d="M211 1106l-136 31l46 143l130 -55l-13 140h151l-13 -140l130 55l46 -143l-136 -32l91 -105l-121 -89l-72 119l-73 -119l-121 89z" />
    <glyph glyph-name="plus" unicode="+" 
d="M763 780v-162h-260v-256h-166v256h-260v162h260v251h166v-251h260z" />
    <glyph glyph-name="comma" unicode="," horiz-adv-x="355" 
d="M277 218v-218l-119 -282h-79l91 282h-91v218h198z" />
    <glyph glyph-name="hyphen" unicode="-" horiz-adv-x="294" 
d="M294 604v-171h-294v171h294z" />
    <glyph glyph-name="period" unicode="." horiz-adv-x="355" 
d="M277 218v-218h-198v218h198z" />
    <glyph glyph-name="slash" unicode="/" horiz-adv-x="760" 
d="M540 1365h172l-506 -1502h-172z" />
    <glyph glyph-name="zero" unicode="0" 
d="M763 931v-497q0 -116 -16.5 -190.5t-54.5 -132.5q-88 -131 -272 -131t-271 131q-72 108 -72 323v497q0 115 16.5 190t55.5 133q87 131 271 131t272 -131q46 -70 59 -156q12 -77 12 -167zM275 973v-581q0 -87 7 -116q28 -108 138 -108q85 0 120 64q20 36 23 75q2 31 2 85
v581q0 88 -7 116q-28 108 -138 108q-85 0 -120 -64q-20 -36 -23 -75q-2 -32 -2 -85z" />
    <glyph glyph-name="one" unicode="1" 
d="M563 1365v-1365h-198v1045h-198v125q78 34 149 81q86 61 130 114h117z" />
    <glyph glyph-name="two" unicode="2" 
d="M732 184v-184h-665v184q266 348 353 480q86 131 113 216q22 70 22 146q0 172 -133 172q-65 0 -103 -46q-41 -50 -41 -142q0 -16 1 -42h-198q0 79 6 129q19 153 132 229q88 59 210 59q152 0 242 -95q89 -95 89 -266q0 -129 -53 -247q-54 -119 -244 -372
q-112 -148 -166 -221h435z" />
    <glyph glyph-name="three" unicode="3" 
d="M363 623v190q53 2 77 7q103 23 103 183q0 195 -127 195q-79 0 -112 -71q-18 -39 -18 -88q0 -7 1 -22h-198q-1 19 -1 28q0 154 98 251q90 89 236 89q141 0 222 -84q97 -100 97 -295q0 -129 -46 -199q-35 -53 -120 -86q59 -17 88 -37q100 -70 100 -283q0 -205 -92 -311
q-96 -110 -259 -110q-146 0 -240 93q-102 100 -102 274q0 18 1 42h204v-28q0 -94 39 -145q36 -48 101 -48q143 0 143 229q0 136 -55 184q-43 38 -140 42z" />
    <glyph glyph-name="four" unicode="4" 
d="M451 347h-422v213l404 805h216v-834h155v-184h-155v-347h-198v347zM451 531v502l-238 -502h238z" />
    <glyph glyph-name="five" unicode="5" 
d="M708 1365v-184h-424l-6 -311q95 85 207 85q147 0 214 -112q42 -69 51 -148q10 -92 10 -206q0 -194 -24 -275q-68 -234 -320 -234q-153 0 -236 89q-88 94 -88 273q0 13 1 42h198q-1 -26 -1 -36q0 -180 127 -180q94 0 120 85q18 61 18 231q0 168 -28 234q-30 70 -110 70
q-54 0 -90 -38q-23 -23 -49 -72h-182l14 687h598z" />
    <glyph glyph-name="six" unicode="6" 
d="M747 1011h-198q0 95 -18 128q-32 58 -108 58q-83 0 -114 -63q-28 -58 -28 -226v-169q40 54 83 78q53 30 125 30q276 0 276 -407q0 -460 -342 -460q-166 0 -253 115q-46 61 -66.5 147t-20.5 217v487q0 157 35 241q44 104 136 156q74 42 170 42q144 0 233 -90
q87 -89 90 -237v-47zM281 575v-187q0 -220 140 -220q81 0 113 69q26 59 26 182q0 139 -37 194q-31 46 -98 46q-77 0 -144 -84z" />
    <glyph glyph-name="seven" unicode="7" 
d="M733 1365v-146l-305 -1219h-207l302 1181h-445v184h655z" />
    <glyph glyph-name="eight" unicode="8" 
d="M601 719q90 -38 128 -114q38 -78 38 -217q0 -107 -21 -179t-69 -126q-90 -103 -256 -103q-167 0 -257 103q-48 54 -69 126t-21 179q0 153 47 233q37 64 119 98q-80 39 -111 98q-38 70 -38 202q0 176 85 272q84 94 245 94q160 0 244 -94q85 -96 85 -272q0 -145 -46 -216
q-32 -50 -103 -84zM418 1197q-129 0 -129 -193q0 -192 132 -192q131 0 131 191q0 194 -134 194zM418 618q-139 0 -139 -225t142 -225q141 0 141 223q0 227 -144 227z" />
    <glyph glyph-name="nine" unicode="9" 
d="M93 354h198q0 -95 18 -128q33 -58 108 -58q83 0 114 63q28 58 28 226v169q-41 -54 -83 -78q-53 -30 -125 -30q-276 0 -276 407q0 460 342 460q166 0 253 -115q46 -61 66.5 -147t20.5 -217v-487q0 -157 -35 -241q-44 -104 -136 -156q-74 -42 -170 -42q-144 0 -233 90
q-87 89 -90 237v47zM559 790v187q0 220 -140 220q-81 0 -113 -69q-26 -59 -26 -183q0 -138 37 -193q31 -46 99 -46q76 0 143 84z" />
    <glyph glyph-name="colon" unicode=":" horiz-adv-x="355" 
d="M277 218v-218h-198v218h198zM277 1017v-218h-198v218h198z" />
    <glyph glyph-name="semicolon" unicode=";" horiz-adv-x="355" 
d="M277 1017v-218h-198v218h198zM277 218v-218l-119 -282h-79l91 282h-91v218h198z" />
    <glyph glyph-name="less" unicode="&#x3c;" horiz-adv-x="1024" 
d="M955 1210v-207l-666 -316l666 -317v-205l-887 434v177z" />
    <glyph glyph-name="equal" unicode="=" 
d="M763 606v-162h-686v162h686zM763 948v-162h-686v162h686z" />
    <glyph glyph-name="greater" unicode="&#x3e;" horiz-adv-x="1024" 
d="M69 165v207l666 316l-665 317v205l886 -434v-177z" />
    <glyph glyph-name="question" unicode="?" horiz-adv-x="727" 
d="M443 415h-174v61q0 154 30 255q25 82 109 233q56 100 56 152q0 44 -27 67q-25 22 -62 22q-59 0 -98 -62q-23 -37 -45 -101l-191 55q42 137 112 201q88 81 231 81q115 0 190 -58q98 -76 98 -207q0 -68 -31 -135q-19 -41 -71 -117q-78 -117 -97 -171q-27 -70 -30 -189v-87z
M459 218v-218h-198v218h198z" />
    <glyph glyph-name="at" unicode="@" horiz-adv-x="965" 
d="M880 362h-130l-25 56q-67 -76 -150 -76q-82 0 -117 32q-50 44 -50 139v384q0 91 45 137q50 50 133 50q64 0 123 -53v44q0 72 -50 110q-66 50 -163 50t-160 -52q-45 -37 -54 -89q-5 -29 -5 -80v-638q0 -113 39 -164q63 -83 191 -83q112 0 202 66l102 -95
q-115 -121 -305 -121q-83 0 -159.5 22.5t-124.5 61.5q-54 43 -85 115.5t-31 153.5v713q0 154 90 240q105 100 299 100q152 0 251 -65q134 -88 134 -264v-694zM579 868v-309q0 -50 18 -64t47 -14q35 0 53 19q12 13 12 59v309q0 50 -18 64q-17 13 -47 13q-36 0 -52 -18
q-13 -14 -13 -59z" />
    <glyph glyph-name="A" unicode="A" horiz-adv-x="923" 
d="M608 297h-291l-55 -297h-207l262 1365h290l276 -1365h-217zM572 492l-112 611l-109 -611h221z" />
    <glyph glyph-name="B" unicode="B" horiz-adv-x="933" 
d="M104 0v1365h316q180 0 284 -82q116 -92 116 -265q0 -135 -78 -218q-50 -55 -147 -84q107 -31 161 -79q96 -86 96 -250q0 -182 -114 -289q-105 -98 -291 -98h-343zM316 810h77q99 0 156 54q56 53 56 138q0 78 -52 125q-47 43 -156 43h-81v-360zM316 195h106q106 0 158 53
q53 54 53 139q0 96 -61 160q-63 68 -179 68h-77v-420z" />
    <glyph glyph-name="C" unicode="C" horiz-adv-x="909" 
d="M830 921h-211v28q0 238 -160 238q-87 0 -125 -67q-23 -42 -28 -90q-4 -46 -4 -106v-454q0 -143 23 -204q34 -88 137 -88q163 0 163 268v34h211q1 -35 1 -51q0 -198 -80 -314q-94 -135 -295 -135q-213 0 -306 152q-49 79 -58 175q-8 80 -8 192v381q0 196 25 272
q44 136 160 193q80 40 184 40q174 0 271 -107q101 -112 101 -313q0 -16 -1 -44z" />
    <glyph glyph-name="D" unicode="D" horiz-adv-x="923" 
d="M104 0v1365h334q398 0 395 -427v-511q3 -427 -395 -427h-334zM316 195h103q109 1 156 65q30 42 38 96q8 55 8 129v395q0 90 -10 139.5t-36 85.5q-47 64 -156 65h-103v-975z" />
    <glyph glyph-name="E" unicode="E" horiz-adv-x="764" 
d="M723 1365v-195h-407v-359h300v-195h-300v-421h407v-195h-619v1365h619z" />
    <glyph glyph-name="F" unicode="F" horiz-adv-x="752" 
d="M316 607v-607h-212v1365h625v-195h-413v-368h305v-195h-305z" />
    <glyph glyph-name="G" unicode="G" horiz-adv-x="918" 
d="M451 678h385v-678h-110l-37 116q-43 -58 -85 -87q-73 -49 -172 -49q-94 0 -168.5 42.5t-113.5 117.5q-43 83 -52 180q-8 82 -8 184v376q0 196 25 272q43 135 160 193q81 40 184 40q228 0 322 -182q50 -96 49 -282h-212q0 121 -24 176q-40 90 -136 90q-89 0 -126 -70
q-22 -42 -26 -90q-4 -45 -4 -106v-417q0 -153 23 -222q34 -104 143 -104q92 0 128 82q28 63 28 189v55h-173v174z" />
    <glyph glyph-name="H" unicode="H" horiz-adv-x="930" 
d="M615 601h-299v-601h-212v1365h212v-569h299v569h212v-1365h-212v601z" />
    <glyph glyph-name="I" unicode="I" horiz-adv-x="419" 
d="M316 1365v-1365h-212v1365h212z" />
    <glyph glyph-name="J" unicode="J" horiz-adv-x="930" 
d="M614 1365h212v-925q0 -165 -29 -245q-78 -215 -332 -215q-189 0 -282 123q-54 71 -67 159q-5 41 -5 81h205q0 -53 30 -104q36 -61 119 -61t119 61q30 50 30 167v959z" />
    <glyph glyph-name="K" unicode="K" horiz-adv-x="908" 
d="M316 1365v-565l305 565h227l-289 -496l330 -869h-231l-230 644l-112 -191v-453h-212v1365h212z" />
    <glyph glyph-name="L" unicode="L" horiz-adv-x="763" 
d="M316 1365v-1170h420v-195h-632v1365h212z" />
    <glyph glyph-name="M" unicode="M" horiz-adv-x="1202" 
d="M1098 1365v-1365h-201v1004l-238 -1004h-118l-236 1004v-1004h-201v1365h309l189 -857l191 857h305z" />
    <glyph glyph-name="N" unicode="N" horiz-adv-x="965" 
d="M861 1365v-1365h-190l-366 908v-908h-201v1365h212l344 -849v849h201z" />
    <glyph glyph-name="O" unicode="O" horiz-adv-x="926" 
d="M835 931v-497q0 -115 -18 -190t-60 -133q-95 -131 -294 -131q-200 0 -295 131q-50 70 -65 156q-13 77 -13 167v497q0 115 18 190t60 133q96 131 295 131t294 -131q51 -70 65 -156q13 -77 13 -167zM302 927v-489q0 -98 8 -134q29 -126 153 -126q95 0 133 74q21 40 24 88
q3 40 3 98v489q0 99 -8 135q-28 125 -152 125q-96 0 -134 -74q-21 -40 -24 -87q-3 -41 -3 -99z" />
    <glyph glyph-name="P" unicode="P" horiz-adv-x="890" 
d="M316 553v-553h-212v1365h351q196 0 287 -88q108 -104 108 -318t-108 -318q-48 -46 -116 -67t-171 -21h-139zM316 748h92q117 0 164 37q60 45 60 174t-60 174q-47 37 -164 37h-92v-422z" />
    <glyph glyph-name="Q" unicode="Q" horiz-adv-x="926" 
d="M916 46l-120 -120l-122 122q-99 -70 -215 -68q-195 0 -291 131q-50 69 -65 156q-13 77 -13 167v497q0 115 18 190t60 133q96 131 295 131t294 -131q51 -70 65 -156q13 -77 13 -167v-497q-3 -157 -53 -254zM383 320l128 128l93 -93q18 37 19 83v489q0 99 -8 135
q-28 125 -152 125q-96 0 -134 -74q-21 -40 -24 -87q-3 -41 -3 -99v-489q0 -98 8 -134q29 -126 153 -126q30 -1 51 11z" />
    <glyph glyph-name="R" unicode="R" horiz-adv-x="899" 
d="M316 560v-560h-212v1365h332q176 0 270 -82q122 -106 122 -309q0 -260 -184 -355l201 -619h-222l-181 560h-126zM316 755h77q87 0 124 16q93 40 93 192q0 112 -52 163q-30 31 -73 38q-38 6 -92 6h-77v-415z" />
    <glyph glyph-name="S" unicode="S" horiz-adv-x="873" 
d="M821 1044l-202 -60q-49 203 -182 203q-57 0 -96 -38q-41 -40 -41 -101q0 -75 57 -137q37 -40 181 -150q147 -114 204 -183q88 -107 88 -251q0 -151 -101 -248q-103 -99 -273 -99q-350 0 -415 384l202 59q42 -245 213 -245q72 0 114 44q42 43 42 112q0 72 -53 132
q-44 51 -150 134q-154 120 -185 150q-142 137 -142 299q0 161 115 255q97 81 241 81q295 0 383 -341z" />
    <glyph glyph-name="T" unicode="T" horiz-adv-x="768" 
d="M491 1170v-1170h-212v1170h-265v195h741v-195h-264z" />
    <glyph glyph-name="U" unicode="U" horiz-adv-x="930" 
d="M614 1365h212v-925q0 -165 -29 -245q-78 -215 -332 -215q-189 0 -282 123q-54 71 -67 159q-12 79 -12 178v925h212v-959q0 -116 30 -167q36 -61 119 -61t119 61q30 50 30 167v959z" />
    <glyph glyph-name="V" unicode="V" horiz-adv-x="887" 
d="M589 0h-262l-293 1365h218l206 -1038l180 1038h214z" />
    <glyph glyph-name="W" unicode="W" horiz-adv-x="1305" 
d="M1033 0h-198l-176 926l-164 -926h-199l-255 1365h205l155 -880l164 880h184l179 -880l138 880h198z" />
    <glyph glyph-name="X" unicode="X" horiz-adv-x="921" 
d="M575 712l319 -712h-234l-208 496l-194 -496h-231l304 712l-292 653h233l182 -438l170 438h231z" />
    <glyph glyph-name="Y" unicode="Y" horiz-adv-x="902" 
d="M552 533v-533h-212v533l-306 832h233l182 -577l189 577h229z" />
    <glyph glyph-name="Z" unicode="Z" horiz-adv-x="797" 
d="M756 195v-195h-715v199l478 971h-433v195h664v-195l-476 -975h482z" />
    <glyph glyph-name="bracketleft" unicode="[" horiz-adv-x="537" 
d="M456 1365v-177h-161v-1205h161v-177h-355v1559h355z" />
    <glyph glyph-name="backslash" unicode="\" horiz-adv-x="760" 
d="M220 1365l506 -1502h-172l-506 1502h172z" />
    <glyph glyph-name="bracketright" unicode="]" horiz-adv-x="537" 
d="M81 -194v177h161v1205h-161v177h355v-1559h-355z" />
    <glyph glyph-name="asciicircum" unicode="^" horiz-adv-x="1024" 
d="M244 750h-190l342 620h233l342 -620h-191l-268 478z" />
    <glyph glyph-name="underscore" unicode="_" horiz-adv-x="1024" 
d="M0 -137h1024v-130h-1024v130z" />
    <glyph glyph-name="grave" unicode="`" horiz-adv-x="1024" 
d="M547 1474h-144l-148 182h198z" />
    <glyph glyph-name="a" unicode="a" horiz-adv-x="923" 
d="M608 297h-291l-55 -297h-207l262 1365h290l276 -1365h-217zM572 492l-112 611l-109 -611h221z" />
    <glyph glyph-name="b" unicode="b" horiz-adv-x="933" 
d="M104 0v1365h316q180 0 284 -82q116 -92 116 -265q0 -135 -78 -218q-50 -55 -147 -84q107 -31 161 -79q96 -86 96 -250q0 -182 -114 -289q-105 -98 -291 -98h-343zM316 810h77q99 0 156 54q56 53 56 138q0 78 -52 125q-47 43 -156 43h-81v-360zM316 195h106q106 0 158 53
q53 54 53 139q0 96 -61 160q-63 68 -179 68h-77v-420z" />
    <glyph glyph-name="c" unicode="c" horiz-adv-x="909" 
d="M830 921h-211v28q0 238 -160 238q-87 0 -125 -67q-23 -42 -28 -90q-4 -46 -4 -106v-454q0 -143 23 -204q34 -88 137 -88q163 0 163 268v34h211q1 -35 1 -51q0 -198 -80 -314q-94 -135 -295 -135q-213 0 -306 152q-49 79 -58 175q-8 80 -8 192v381q0 196 25 272
q44 136 160 193q80 40 184 40q174 0 271 -107q101 -112 101 -313q0 -16 -1 -44z" />
    <glyph glyph-name="d" unicode="d" horiz-adv-x="923" 
d="M104 0v1365h334q398 0 395 -427v-511q3 -427 -395 -427h-334zM316 195h103q109 1 156 65q30 42 38 96q8 55 8 129v395q0 90 -10 139.5t-36 85.5q-47 64 -156 65h-103v-975z" />
    <glyph glyph-name="e" unicode="e" horiz-adv-x="764" 
d="M723 1365v-195h-407v-359h300v-195h-300v-421h407v-195h-619v1365h619z" />
    <glyph glyph-name="f" unicode="f" horiz-adv-x="752" 
d="M316 607v-607h-212v1365h625v-195h-413v-368h305v-195h-305z" />
    <glyph glyph-name="g" unicode="g" horiz-adv-x="918" 
d="M451 678h385v-678h-110l-37 116q-43 -58 -85 -87q-73 -49 -172 -49q-94 0 -168.5 42.5t-113.5 117.5q-43 83 -52 180q-8 82 -8 184v376q0 196 25 272q43 135 160 193q81 40 184 40q228 0 322 -182q50 -96 49 -282h-212q0 121 -24 176q-40 90 -136 90q-89 0 -126 -70
q-22 -42 -26 -90q-4 -45 -4 -106v-417q0 -153 23 -222q34 -104 143 -104q92 0 128 82q28 63 28 189v55h-173v174z" />
    <glyph glyph-name="h" unicode="h" horiz-adv-x="930" 
d="M615 601h-299v-601h-212v1365h212v-569h299v569h212v-1365h-212v601z" />
    <glyph glyph-name="i" unicode="i" horiz-adv-x="419" 
d="M316 1365v-1365h-212v1365h212z" />
    <glyph glyph-name="j" unicode="j" horiz-adv-x="930" 
d="M614 1365h212v-925q0 -165 -29 -245q-78 -215 -332 -215q-189 0 -282 123q-54 71 -67 159q-5 41 -5 81h205q0 -53 30 -104q36 -61 119 -61t119 61q30 50 30 167v959z" />
    <glyph glyph-name="k" unicode="k" horiz-adv-x="908" 
d="M316 1365v-565l305 565h227l-289 -496l330 -869h-231l-230 644l-112 -191v-453h-212v1365h212z" />
    <glyph glyph-name="l" unicode="l" horiz-adv-x="763" 
d="M316 1365v-1170h420v-195h-632v1365h212z" />
    <glyph glyph-name="m" unicode="m" horiz-adv-x="1202" 
d="M1098 1365v-1365h-201v1004l-238 -1004h-118l-236 1004v-1004h-201v1365h309l189 -857l191 857h305z" />
    <glyph glyph-name="n" unicode="n" horiz-adv-x="965" 
d="M861 1365v-1365h-190l-366 908v-908h-201v1365h212l344 -849v849h201z" />
    <glyph glyph-name="o" unicode="o" horiz-adv-x="926" 
d="M835 931v-497q0 -115 -18 -190t-60 -133q-95 -131 -294 -131q-200 0 -295 131q-50 70 -65 156q-13 77 -13 167v497q0 115 18 190t60 133q96 131 295 131t294 -131q51 -70 65 -156q13 -77 13 -167zM302 927v-489q0 -98 8 -134q29 -126 153 -126q95 0 133 74q21 40 24 88
q3 40 3 98v489q0 99 -8 135q-28 125 -152 125q-96 0 -134 -74q-21 -40 -24 -87q-3 -41 -3 -99z" />
    <glyph glyph-name="p" unicode="p" horiz-adv-x="890" 
d="M316 553v-553h-212v1365h351q196 0 287 -88q108 -104 108 -318t-108 -318q-48 -46 -116 -67t-171 -21h-139zM316 748h92q117 0 164 37q60 45 60 174t-60 174q-47 37 -164 37h-92v-422z" />
    <glyph glyph-name="q" unicode="q" horiz-adv-x="926" 
d="M916 46l-120 -120l-122 122q-99 -70 -215 -68q-195 0 -291 131q-50 69 -65 156q-13 77 -13 167v497q0 115 18 190t60 133q96 131 295 131t294 -131q51 -70 65 -156q13 -77 13 -167v-497q-3 -157 -53 -254zM383 320l128 128l93 -93q18 37 19 83v489q0 99 -8 135
q-28 125 -152 125q-96 0 -134 -74q-21 -40 -24 -87q-3 -41 -3 -99v-489q0 -98 8 -134q29 -126 153 -126q30 -1 51 11z" />
    <glyph glyph-name="r" unicode="r" horiz-adv-x="899" 
d="M316 560v-560h-212v1365h332q176 0 270 -82q122 -106 122 -309q0 -260 -184 -355l201 -619h-222l-181 560h-126zM316 755h77q87 0 124 16q93 40 93 192q0 112 -52 163q-30 31 -73 38q-38 6 -92 6h-77v-415z" />
    <glyph glyph-name="s" unicode="s" horiz-adv-x="873" 
d="M821 1044l-202 -60q-49 203 -182 203q-57 0 -96 -38q-41 -40 -41 -101q0 -75 57 -137q37 -40 181 -150q147 -114 204 -183q88 -107 88 -251q0 -151 -101 -248q-103 -99 -273 -99q-350 0 -415 384l202 59q42 -245 213 -245q72 0 114 44q42 43 42 112q0 72 -53 132
q-44 51 -150 134q-154 120 -185 150q-142 137 -142 299q0 161 115 255q97 81 241 81q295 0 383 -341z" />
    <glyph glyph-name="t" unicode="t" horiz-adv-x="768" 
d="M491 1170v-1170h-212v1170h-265v195h741v-195h-264z" />
    <glyph glyph-name="u" unicode="u" horiz-adv-x="930" 
d="M614 1365h212v-925q0 -165 -29 -245q-78 -215 -332 -215q-189 0 -282 123q-54 71 -67 159q-12 79 -12 178v925h212v-959q0 -116 30 -167q36 -61 119 -61t119 61q30 50 30 167v959z" />
    <glyph glyph-name="v" unicode="v" horiz-adv-x="887" 
d="M589 0h-262l-293 1365h218l206 -1038l180 1038h214z" />
    <glyph glyph-name="w" unicode="w" horiz-adv-x="1305" 
d="M1033 0h-198l-176 926l-164 -926h-199l-255 1365h205l155 -880l164 880h184l179 -880l138 880h198z" />
    <glyph glyph-name="x" unicode="x" horiz-adv-x="921" 
d="M575 712l319 -712h-234l-208 496l-194 -496h-231l304 712l-292 653h233l182 -438l170 438h231z" />
    <glyph glyph-name="y" unicode="y" horiz-adv-x="902" 
d="M552 533v-533h-212v533l-306 832h233l182 -577l189 577h229z" />
    <glyph glyph-name="z" unicode="z" horiz-adv-x="797" 
d="M756 195v-195h-715v199l478 971h-433v195h664v-195l-476 -975h482z" />
    <glyph glyph-name="braceleft" unicode="{" horiz-adv-x="601" 
d="M245 584q66 -37 95 -104q19 -47 19 -136v-173q4 -99 20 -123q34 -65 175 -65v-177q-186 1 -240 16q-79 25 -115.5 93.5t-36.5 192.5v207q0 103 -33 143q-35 39 -84 50v161q53 13 86 53q29 36 31 131v232q-2 153 73 218q46 44 120 54q59 7 199 7v-186q-91 -1 -141 -28
q-38 -23 -46 -67q-8 -27 -8 -86v-177q0 -108 -31 -161q-25 -43 -83 -75z" />
    <glyph glyph-name="bar" unicode="|" horiz-adv-x="1024" 
d="M408 1365h208v-1706h-208v1706z" />
    <glyph glyph-name="braceright" unicode="}" horiz-adv-x="601" 
d="M357 584q-63 35 -88 86q-26 55 -26 150v177q-2 88 -19 115q-35 65 -177 66v186q185 1 239 -16q156 -50 154 -263v-232q2 -95 31 -131q32 -40 85 -53v-161q-48 -11 -83 -50q-33 -40 -33 -143v-207q0 -167 -70 -237q-48 -48 -121 -57q-61 -7 -202 -8v177q89 0 140 26
q16 9 30 29.5t18 39.5q8 24 8 93v173q0 97 23 145q28 59 91 95z" />
    <glyph glyph-name="asciitilde" unicode="~" horiz-adv-x="1365" 
d="M296 377l-106 86q108 246 286 246q75 0 236 -76q96 -46 124 -54q29 -9 55 -9q98 0 176 144l107 -86q-105 -243 -306 -243q-31 0 -74 14q-37 11 -164 72q-107 51 -165 51q-88 0 -169 -145z" />
    <glyph glyph-name="Adieresis" unicode="&#xc4;" horiz-adv-x="923" 
d="M401 1656v-182h-177v182h177zM716 1656v-182h-177v182h177zM608 297h-291l-55 -297h-207l262 1365h290l276 -1365h-217zM572 492l-112 611l-109 -611h221z" />
    <glyph glyph-name="Aring" unicode="&#xc5;" horiz-adv-x="923" 
d="M465 1733q59 0 104 -42q44 -40 44 -100t-44 -102t-106 -42t-106 42t-44 102q0 61 44 100q47 42 108 42zM462 1662q-29 0 -52 -21q-22 -21 -22 -51t22 -51q23 -21 53 -21q31 0 53 21t22 51q0 31 -22 51q-23 21 -54 21zM608 297h-291l-55 -297h-207l262 1365h290l276 -1365
h-217zM572 492l-112 611l-109 -611h221z" />
    <glyph glyph-name="Ccedilla" unicode="&#xc7;" horiz-adv-x="909" 
d="M830 921h-211v28q0 238 -160 238q-87 0 -125 -67q-23 -42 -28 -90q-4 -46 -4 -106v-454q0 -143 23 -204q34 -88 137 -88q163 0 163 268v34h211q1 -35 1 -51q0 -198 -80 -314q-94 -135 -295 -135q-213 0 -306 152q-49 79 -58 175q-8 80 -8 192v381q0 196 25 272
q44 136 160 193q80 40 184 40q174 0 271 -107q101 -112 101 -313q0 -16 -1 -44zM545 -95v-139l-45 -114h-97l36 114h-58v139h164z" />
    <glyph glyph-name="Eacute" unicode="&#xc9;" horiz-adv-x="764" 
d="M285 1474l93 182h199l-148 -182h-144zM723 1365v-195h-407v-359h300v-195h-300v-421h407v-195h-619v1365h619z" />
    <glyph glyph-name="Ntilde" unicode="&#xd1;" horiz-adv-x="965" 
d="M279 1484v142q55 31 118 31q43 0 91 -16q66 -23 102 -23q39 0 99 34v-142q-60 -34 -99 -34q-36 0 -102 23q-48 16 -91 16q-63 0 -118 -31zM861 1365v-1365h-190l-366 908v-908h-201v1365h212l344 -849v849h201z" />
    <glyph glyph-name="Odieresis" unicode="&#xd6;" horiz-adv-x="926" 
d="M395 1656v-182h-177v182h177zM710 1656v-182h-177v182h177zM835 931v-497q0 -115 -18 -190t-60 -133q-95 -131 -294 -131q-200 0 -295 131q-50 70 -65 156q-13 77 -13 167v497q0 115 18 190t60 133q96 131 295 131t294 -131q51 -70 65 -156q13 -77 13 -167zM302 927v-489
q0 -98 8 -134q29 -126 153 -126q95 0 133 74q21 40 24 88q3 40 3 98v489q0 99 -8 135q-28 125 -152 125q-96 0 -134 -74q-21 -40 -24 -87q-3 -41 -3 -99z" />
    <glyph glyph-name="Udieresis" unicode="&#xdc;" horiz-adv-x="930" 
d="M397 1656v-182h-177v182h177zM712 1656v-182h-177v182h177zM614 1365h212v-925q0 -165 -29 -245q-78 -215 -332 -215q-189 0 -282 123q-54 71 -67 159q-12 79 -12 178v925h212v-959q0 -116 30 -167q36 -61 119 -61t119 61q30 50 30 167v959z" />
    <glyph glyph-name="aacute" unicode="&#xe1;" horiz-adv-x="923" 
d="M608 297h-291l-55 -297h-207l262 1365h290l276 -1365h-217zM572 492l-112 611l-109 -611h221zM365 1474l93 182h199l-148 -182h-144z" />
    <glyph glyph-name="agrave" unicode="&#xe0;" horiz-adv-x="923" 
d="M608 297h-291l-55 -297h-207l262 1365h290l276 -1365h-217zM572 492l-112 611l-109 -611h221zM547 1474h-144l-148 182h198z" />
    <glyph glyph-name="acircumflex" unicode="&#xe2;" horiz-adv-x="923" 
d="M608 297h-291l-55 -297h-207l262 1365h290l276 -1365h-217zM572 492l-112 611l-109 -611h221zM356 1656h214l128 -182h-171l-64 69l-64 -69h-172z" />
    <glyph glyph-name="adieresis" unicode="&#xe4;" horiz-adv-x="926" 
d="M608 297h-291l-55 -297h-207l262 1365h290l276 -1365h-217zM572 492l-112 611l-109 -611h221zM395 1656v-182h-177v182h177zM710 1656v-182h-177v182h177z" />
    <glyph glyph-name="atilde" unicode="&#xe3;" horiz-adv-x="923" 
d="M608 297h-291l-55 -297h-207l262 1365h290l276 -1365h-217zM572 492l-112 611l-109 -611h221zM257 1484v142q56 30 118 30q43 0 91 -16q67 -23 102 -23q39 0 99 35v-142q-61 -35 -99 -35q-35 0 -102 23q-48 16 -91 16q-62 0 -118 -30z" />
    <glyph glyph-name="aring" unicode="&#xe5;" horiz-adv-x="926" 
d="M466 1733q59 0 104 -42q44 -40 44 -100q0 -61 -44 -102q-44 -42 -106 -42t-106 42t-44 102q0 61 44 100q47 42 108 42zM463 1662q-29 0 -52 -21q-22 -21 -22 -51t22 -51q23 -21 53 -21q31 0 53 21t22 51q0 31 -22 51q-23 21 -54 21zM608 297h-291l-55 -297h-207l262 1365
h290l276 -1365h-217zM572 492l-112 611l-109 -611h221z" />
    <glyph glyph-name="ccedilla" unicode="&#xe7;" horiz-adv-x="909" 
d="M830 921h-211v28q0 238 -160 238q-87 0 -125 -67q-23 -42 -28 -90q-4 -46 -4 -106v-454q0 -143 23 -204q34 -88 137 -88q163 0 163 268v34h211q1 -35 1 -51q0 -198 -80 -314q-94 -135 -295 -135q-213 0 -306 152q-49 79 -58 175q-8 80 -8 192v381q0 196 25 272
q44 136 160 193q80 40 184 40q174 0 271 -107q101 -112 101 -313q0 -16 -1 -44zM545 -95v-139l-45 -114h-97l36 114h-58v139h164z" />
    <glyph glyph-name="eacute" unicode="&#xe9;" horiz-adv-x="764" 
d="M723 1365v-195h-407v-359h300v-195h-300v-421h407v-195h-619v1365h619zM254 1474l93 182h199l-148 -182h-144z" />
    <glyph glyph-name="egrave" unicode="&#xe8;" horiz-adv-x="764" 
d="M723 1365v-195h-407v-359h300v-195h-300v-421h407v-195h-619v1365h619zM435 1474h-144l-148 182h198z" />
    <glyph glyph-name="ecircumflex" unicode="&#xea;" horiz-adv-x="764" 
d="M723 1365v-195h-407v-359h300v-195h-300v-421h407v-195h-619v1365h619zM304 1656h214l128 -182h-171l-64 69l-64 -69h-172z" />
    <glyph glyph-name="edieresis" unicode="&#xeb;" horiz-adv-x="764" 
d="M723 1365v-195h-407v-359h300v-195h-300v-421h407v-195h-619v1365h619zM355 1656v-182h-177v182h177zM670 1656v-182h-177v182h177z" />
    <glyph glyph-name="iacute" unicode="&#xed;" horiz-adv-x="419" 
d="M316 1365v-1365h-212v1365h212zM113 1474l93 182h199l-148 -182h-144z" />
    <glyph glyph-name="igrave" unicode="&#xec;" horiz-adv-x="419" 
d="M316 1365v-1365h-212v1365h212zM295 1474h-144l-148 182h198z" />
    <glyph glyph-name="icircumflex" unicode="&#xee;" horiz-adv-x="419" 
d="M316 1365v-1365h-212v1365h212zM104 1656h214l128 -182h-171l-64 69l-64 -69h-172z" />
    <glyph glyph-name="idieresis" unicode="&#xef;" horiz-adv-x="419" 
d="M155 1656v-182h-177v182h177zM442 1656v-182h-177v182h177zM316 1365v-1365h-212v1365h212z" />
    <glyph glyph-name="ntilde" unicode="&#xf1;" horiz-adv-x="965" 
d="M861 1365v-1365h-190l-366 908v-908h-201v1365h212l344 -849v849h201zM278 1484v142q56 30 118 30q43 0 91 -16q67 -23 102 -23q39 0 99 35v-142q-61 -35 -99 -35q-35 0 -102 23q-48 16 -91 16q-62 0 -118 -30z" />
    <glyph glyph-name="oacute" unicode="&#xf3;" horiz-adv-x="926" 
d="M835 931v-497q0 -115 -18 -190t-60 -133q-95 -131 -294 -131q-200 0 -295 131q-50 70 -65 156q-13 77 -13 167v497q0 115 18 190t60 133q96 131 295 131t294 -131q51 -70 65 -156q13 -77 13 -167zM302 927v-489q0 -98 8 -134q29 -126 153 -126q95 0 133 74q21 40 24 88
q3 40 3 98v489q0 99 -8 135q-28 125 -152 125q-96 0 -134 -74q-21 -40 -24 -87q-3 -41 -3 -99zM366 1474l93 182h199l-148 -182h-144z" />
    <glyph glyph-name="ograve" unicode="&#xf2;" horiz-adv-x="926" 
d="M835 931v-497q0 -115 -18 -190t-60 -133q-95 -131 -294 -131q-200 0 -295 131q-50 70 -65 156q-13 77 -13 167v497q0 115 18 190t60 133q96 131 295 131t294 -131q51 -70 65 -156q13 -77 13 -167zM302 927v-489q0 -98 8 -134q29 -126 153 -126q95 0 133 74q21 40 24 88
q3 40 3 98v489q0 99 -8 135q-28 125 -152 125q-96 0 -134 -74q-21 -40 -24 -87q-3 -41 -3 -99zM547 1474h-144l-148 182h198z" />
    <glyph glyph-name="ocircumflex" unicode="&#xf4;" horiz-adv-x="926" 
d="M835 931v-497q0 -115 -18 -190t-60 -133q-95 -131 -294 -131q-200 0 -295 131q-50 70 -65 156q-13 77 -13 167v497q0 115 18 190t60 133q96 131 295 131t294 -131q51 -70 65 -156q13 -77 13 -167zM302 927v-489q0 -98 8 -134q29 -126 153 -126q95 0 133 74q21 40 24 88
q3 40 3 98v489q0 99 -8 135q-28 125 -152 125q-96 0 -134 -74q-21 -40 -24 -87q-3 -41 -3 -99zM357 1656h214l128 -182h-171l-64 69l-64 -69h-172z" />
    <glyph glyph-name="odieresis" unicode="&#xf6;" horiz-adv-x="926" 
d="M835 931v-497q0 -115 -18 -190t-60 -133q-95 -131 -294 -131q-200 0 -295 131q-50 70 -65 156q-13 77 -13 167v497q0 115 18 190t60 133q96 131 295 131t294 -131q51 -70 65 -156q13 -77 13 -167zM302 927v-489q0 -98 8 -134q29 -126 153 -126q95 0 133 74q21 40 24 88
q3 40 3 98v489q0 99 -8 135q-28 125 -152 125q-96 0 -134 -74q-21 -40 -24 -87q-3 -41 -3 -99zM395 1656v-182h-177v182h177zM710 1656v-182h-177v182h177z" />
    <glyph glyph-name="otilde" unicode="&#xf5;" horiz-adv-x="926" 
d="M835 931v-497q0 -115 -18 -190t-60 -133q-95 -131 -294 -131q-200 0 -295 131q-50 70 -65 156q-13 77 -13 167v497q0 115 18 190t60 133q96 131 295 131t294 -131q51 -70 65 -156q13 -77 13 -167zM302 927v-489q0 -98 8 -134q29 -126 153 -126q95 0 133 74q21 40 24 88
q3 40 3 98v489q0 99 -8 135q-28 125 -152 125q-96 0 -134 -74q-21 -40 -24 -87q-3 -41 -3 -99zM259 1484v142q56 30 118 30q43 0 91 -16q67 -23 102 -23q39 0 99 35v-142q-61 -35 -99 -35q-35 0 -102 23q-48 16 -91 16q-62 0 -118 -30z" />
    <glyph glyph-name="uacute" unicode="&#xfa;" horiz-adv-x="930" 
d="M614 1365h212v-925q0 -165 -29 -245q-78 -215 -332 -215q-189 0 -282 123q-54 71 -67 159q-12 79 -12 178v925h212v-959q0 -116 30 -167q36 -61 119 -61t119 61q30 50 30 167v959zM367 1474l93 182h199l-148 -182h-144z" />
    <glyph glyph-name="ugrave" unicode="&#xf9;" horiz-adv-x="930" 
d="M614 1365h212v-925q0 -165 -29 -245q-78 -215 -332 -215q-189 0 -282 123q-54 71 -67 159q-12 79 -12 178v925h212v-959q0 -116 30 -167q36 -61 119 -61t119 61q30 50 30 167v959zM550 1474h-144l-148 182h198z" />
    <glyph glyph-name="ucircumflex" unicode="&#xfb;" horiz-adv-x="930" 
d="M614 1365h212v-925q0 -165 -29 -245q-78 -215 -332 -215q-189 0 -282 123q-54 71 -67 159q-12 79 -12 178v925h212v-959q0 -116 30 -167q36 -61 119 -61t119 61q30 50 30 167v959zM359 1656h214l128 -182h-171l-64 69l-64 -69h-172z" />
    <glyph glyph-name="udieresis" unicode="&#xfc;" horiz-adv-x="930" 
d="M614 1365h212v-925q0 -165 -29 -245q-78 -215 -332 -215q-189 0 -282 123q-54 71 -67 159q-12 79 -12 178v925h212v-959q0 -116 30 -167q36 -61 119 -61t119 61q30 50 30 167v959zM397 1656v-182h-177v182h177zM712 1656v-182h-177v182h177z" />
    <glyph glyph-name="dagger" unicode="&#x2020;" 
d="M516 1365v-337h257v-171h-257v-857h-191v857h-258v171h258v337h191z" />
    <glyph glyph-name="degree" unicode="&#xb0;" horiz-adv-x="779" 
d="M394 1379q123 0 212 -94q78 -83 78 -200q0 -125 -89 -212q-86 -83 -204 -83q-131 0 -219 96q-76 84 -76 196q0 65 27 125.5t73 99.5q86 72 198 72zM386 1239q-57 0 -101 -41q-52 -49 -52 -114q0 -58 38 -103q46 -55 118 -55q61 0 107 44q50 46 50 111q0 64 -43 108
q-48 50 -117 50z" />
    <glyph glyph-name="cent" unicode="&#xa2;" 
d="M367 1413h109v-205q85 -9 146 -50q72 -49 97 -133q17 -55 17 -146v-40h-191v29q0 169 -122 169q-76 0 -105 -55q-24 -47 -24 -177v-245q0 -131 24 -178q29 -55 103 -55q124 0 124 178v30h191v-41q0 -131 -38 -201q-63 -113 -222 -136v-221h-109v221q-104 15 -161 62
q-64 52 -87 140q-16 61 -16 176v294q1 162 35 229q64 133 229 150v205z" />
    <glyph glyph-name="sterling" unicode="&#xa3;" 
d="M625 723v-125h-196q32 -92 32 -172q0 -94 -64 -186l20 -8q98 -36 121 -36q50 0 74 62q17 42 17 101h181q-1 -139 -40 -230q-64 -144 -193 -144q-71 0 -207 66q-56 27 -83 27q-60 0 -133 -98l-129 130q87 150 197 163q50 72 50 148q0 70 -51 177h-173v125h129
q-31 86 -47 130q-36 107 -36 193q0 173 108 263q92 76 231 76q163 0 252 -104q82 -95 82 -254v-32h-198q-1 88 -21 130q-32 73 -115 73q-60 0 -98 -37q-39 -38 -39 -107q0 -76 40 -190q2 -5 52 -141h237z" />
    <glyph glyph-name="section" unicode="&#xa7;" 
d="M692 1058h-189q1 27 1 45q0 112 -81 112q-40 0 -58 -28q-10 -15 -10 -32q0 -30 50 -86l288 -327q79 -90 79 -192q0 -172 -177 -240l22 -26q60 -74 60 -166q0 -107 -74 -173q-70 -62 -187 -62q-173 0 -242 121q-36 63 -36 151q0 18 3 42h189q-3 -24 -3 -37q0 -33 12 -57
q23 -46 78 -46q35 0 53 25q13 18 13 42q0 33 -37 74l-243 272q-74 83 -98 123q-37 63 -37 124q0 152 205 223l-21 25q-50 59 -67 92q-24 46 -24 102q0 94 64 154q76 73 199 73q156 0 227 -108q43 -67 43 -155q0 -25 -2 -65zM355 837q-93 -43 -93 -106q0 -44 42 -91l197 -217
q77 37 77 113q0 51 -56 114z" />
    <glyph glyph-name="bullet" unicode="&#x2022;" horiz-adv-x="1365" 
d="M689 978q113 0 196 -83q84 -83 84 -201t-83 -201t-201 -83q-116 0 -199 82q-85 84 -85 202q0 121 84 202q86 82 204 82z" />
    <glyph glyph-name="paragraph" unicode="&#xb6;" horiz-adv-x="856" 
d="M387 -205v859q-84 4 -161 56q-64 44 -103 120q-41 82 -41 176q0 124 66 221q95 138 280 138h353v-61h-82v-1509h-98v1509h-114v-1509h-100z" />
    <glyph glyph-name="germandbls" unicode="&#xdf;" horiz-adv-x="791" 
d="M280 0h-191v1005q0 144 28 210q39 90 122 134q59 30 136 30q117 0 189 -71q78 -75 78 -195q0 -117 -98 -185q83 -29 120 -94q45 -79 45 -322q0 -313 -65 -414q-41 -63 -100 -85q-40 -16 -105 -16q-29 0 -58 3v185h18q49 0 72 31q26 34 33 134q4 58 4 152q0 230 -45 289
q-31 40 -124 42v184q112 0 112 97q0 43 -24 68q-22 23 -57 23q-90 0 -90 -156v-1049z" />
    <glyph glyph-name="registered" unicode="&#xae;" horiz-adv-x="1594" 
d="M807 1390q190 0 359 -104q170 -105 260 -282q77 -152 77 -322q0 -141 -54 -271t-153 -229t-229 -153t-269 -54q-140 0 -269.5 53.5t-229.5 152.5q-99 99 -153.5 229.5t-54.5 270.5q0 201 104 372q102 168 283 261q150 76 329 76zM791 1276q-111 0 -217 -45t-188 -127
q-82 -83 -127 -193t-45 -228q0 -247 172 -421q171 -173 411 -173q241 0 412 174q171 173 171 418q0 119 -45 230.5t-126 191.5q-175 173 -418 173zM728 602v-331h-138v819h202q107 0 164 -49q74 -65 74 -188q0 -155 -107 -213l120 -369h-146l-106 331h-63zM728 730h39
q68 0 92 24q28 28 28 92t-28 92q-24 24 -92 24h-39v-232z" />
    <glyph glyph-name="copyright" unicode="&#xa9;" horiz-adv-x="1594" 
d="M808 1390q189 0 358 -105q170 -104 260 -281q77 -152 77 -322q0 -140 -54 -270.5t-153 -229.5t-228.5 -153t-269.5 -54t-269.5 53.5t-229.5 152.5q-99 99 -153.5 229.5t-54.5 270.5q0 201 104 372q102 168 283 260q151 77 330 77zM791 1276q-111 0 -217.5 -45.5
t-187.5 -127.5q-82 -82 -127 -192.5t-45 -227.5q0 -247 172 -421q171 -173 412 -173t411 174q171 174 171 418q0 120 -45 231t-126 191q-175 173 -418 173zM1020 819h-139q0 77 -14 109q-21 49 -74 49q-47 0 -67 -37q-18 -32 -18 -112v-268q0 -83 13 -118q19 -48 75 -48
q89 0 89 153v26h138q1 -27 1 -40q0 -116 -49 -186q-57 -83 -178 -83q-131 0 -187 93q-30 48 -35 106q-5 49 -5 114v225q0 117 15 162q46 143 209 143q106 0 164 -65q62 -69 62 -193v-30z" />
    <glyph glyph-name="trademark" unicode="&#x2122;" horiz-adv-x="1194" 
d="M331 1242v-655h-136v655h-154v123h443v-123h-153zM1113 1365v-778h-130v518l-122 -518h-87l-121 517v-517h-131v778h192l105 -445l105 445h189z" />
    <glyph glyph-name="acute" unicode="&#xb4;" horiz-adv-x="1024" 
d="M366 1474l93 182h199l-148 -182h-144z" />
    <glyph glyph-name="dieresis" unicode="&#xa8;" horiz-adv-x="1024" 
d="M443 1656v-182h-177v182h177zM758 1656v-182h-177v182h177z" />
    <glyph glyph-name="AE" unicode="&#xc6;" horiz-adv-x="1300" 
d="M640 297h-294l-112 -297h-227l520 1365h733v-195h-408v-359h301v-195h-301v-421h408v-195h-620v297zM640 492v611l-222 -611h222z" />
    <glyph glyph-name="Oslash" unicode="&#xd8;" horiz-adv-x="926" 
d="M662 1410h110l-43 -122q47 -49 73 -115q33 -79 33 -242v-497q0 -115 -18 -190.5t-60 -132.5q-95 -131 -293 -131q-96 0 -180 36l-21 -60h-110l43 121q-48 52 -74 119q-32 78 -32 238v497q0 115 18 190.5t60 132.5q96 132 294 132q96 0 179 -37zM570 1147q-42 41 -109 41
q-94 0 -132 -75q-21 -39 -24 -87q-3 -41 -3 -99v-548zM355 218q44 -40 108 -40q95 0 133 74q21 40 24 88q3 40 3 98v547z" />
    <glyph glyph-name="plusminus" unicode="&#xb1;" 
d="M763 261v-162h-686v162h686zM763 773v-162h-260v-256h-166v256h-260v162h260v251h166v-251h260z" />
    <glyph glyph-name="yen" unicode="&#xa5;" 
d="M517 584v-584h-201v584h-202v125h157l-233 656h208l173 -577l179 577h204l-239 -656h155v-125h-201z" />
    <glyph glyph-name="mu" unicode="&#xb5;" horiz-adv-x="788" 
d="M508 1017h191v-1017h-191v117q-51 -131 -137 -131q-58 0 -91 63v-397h-191v1365h191v-721q0 -71 12 -104q20 -54 82 -54q76 0 134 127v752z" />
    <glyph glyph-name="ordfeminine" unicode="&#xaa;" horiz-adv-x="538" 
d="M478 546h-139q-8 24 -11 58q-69 -66 -136 -66q-62 0 -97 41q-39 46 -39 125q0 66 33 110q37 49 150 98q28 13 88 37v28q0 43 -11 60q-14 19 -43 19q-56 0 -62 -86h-142q8 98 63.5 148t156.5 50q90 0 136 -48q26 -28 32 -64q5 -28 5 -73v-267q-1 -111 16 -170zM327 850
q-130 -68 -130 -139q0 -27 14 -43q15 -18 37 -18q47 0 79 49v151z" />
    <glyph glyph-name="ordmasculine" unicode="&#xba;" horiz-adv-x="524" 
d="M463 946v-186q0 -94 -20 -133q-48 -93 -181 -93q-95 0 -149 50q-36 33 -45 77q-8 40 -8 99v186q0 93 20 133q48 93 182 93q94 0 148 -50q36 -33 45 -77q8 -39 8 -99zM195 952v-199q0 -103 67 -103q66 0 66 103v199q0 104 -66 104q-67 0 -67 -104z" />
    <glyph glyph-name="ae" unicode="&#xe6;" horiz-adv-x="1300" 
d="M640 297h-294l-112 -297h-227l520 1365h733v-195h-408v-359h301v-195h-301v-421h408v-195h-620v297zM640 492v611l-222 -611h222z" />
    <glyph glyph-name="oslash" unicode="&#xf8;" horiz-adv-x="926" 
d="M662 1410h110l-43 -122q47 -49 73 -115q33 -79 33 -242v-497q0 -115 -18 -190.5t-60 -132.5q-95 -131 -293 -131q-96 0 -180 36l-21 -60h-110l43 121q-48 52 -74 119q-32 78 -32 238v497q0 115 18 190.5t60 132.5q96 132 294 132q96 0 179 -37zM570 1147q-42 41 -109 41
q-94 0 -132 -75q-21 -39 -24 -87q-3 -41 -3 -99v-548zM355 218q44 -40 108 -40q95 0 133 74q21 40 24 88q3 40 3 98v547z" />
    <glyph glyph-name="questiondown" unicode="&#xbf;" horiz-adv-x="727" 
d="M285 602h173v-48q0 -170 -30 -268q-26 -84 -109 -233q-56 -100 -56 -153q0 -43 27 -66q26 -22 62 -22q59 0 98 62q24 38 45 101l191 -55q-42 -137 -112 -202q-88 -80 -231 -80q-115 0 -190 58q-98 76 -98 207q0 68 31 135q20 41 71 117q78 117 97 171q27 68 30 189z
M268 799v218h198v-218h-198z" />
    <glyph glyph-name="exclamdown" unicode="&#xa1;" horiz-adv-x="444" 
d="M158 605h127l49 -953h-225zM123 799v218h198v-218h-198z" />
    <glyph glyph-name="logicalnot" unicode="&#xac;" horiz-adv-x="1024" 
d="M753 0v394h-685v182h887v-576h-202z" />
    <glyph glyph-name="florin" unicode="&#x192;" 
d="M715 972l-24 -126h-186l-232 -1194h-191l232 1194h-165l24 126h166l54 279q23 117 56 164q72 100 234 100q59 0 124 -13l-35 -178q-51 17 -80 17q-50 0 -78 -32q-24 -26 -38 -100l-46 -237h185z" />
    <glyph glyph-name="guillemotleft" unicode="&#xab;" horiz-adv-x="633" 
d="M565 191l-210 174v294l210 174v-245l-78 -76l78 -76v-245zM278 191l-210 174v294l210 174v-245l-78 -76l78 -76v-245z" />
    <glyph glyph-name="guillemotright" unicode="&#xbb;" horiz-adv-x="633" 
d="M68 833l210 -174v-294l-210 -174v245l78 76l-78 76v245zM355 833l210 -174v-294l-210 -174v245l78 76l-78 76v245z" />
    <glyph glyph-name="ellipsis" unicode="&#x2026;" horiz-adv-x="1065" 
d="M277 218v-218h-198v218h198zM632 218v-218h-198v218h198zM987 218v-218h-198v218h198z" />
    <glyph glyph-name="Agrave" unicode="&#xc0;" horiz-adv-x="923" 
d="M608 297h-291l-55 -297h-207l262 1365h290l276 -1365h-217zM572 492l-112 611l-109 -611h221zM548 1474h-144l-148 182h198z" />
    <glyph glyph-name="Atilde" unicode="&#xc3;" horiz-adv-x="923" 
d="M258 1484v142q55 31 118 31q43 0 91 -16q66 -23 102 -23q39 0 99 34v-142q-60 -34 -99 -34q-36 0 -102 23q-48 16 -91 16q-63 0 -118 -31zM608 297h-291l-55 -297h-207l262 1365h290l276 -1365h-217zM572 492l-112 611l-109 -611h221z" />
    <glyph glyph-name="Otilde" unicode="&#xd5;" horiz-adv-x="926" 
d="M259 1484v142q55 31 118 31q43 0 91 -16q66 -23 102 -23q39 0 99 34v-142q-60 -34 -99 -34q-36 0 -102 23q-48 16 -91 16q-63 0 -118 -31zM835 931v-497q0 -115 -18 -190t-60 -133q-95 -131 -294 -131q-200 0 -295 131q-50 70 -65 156q-13 77 -13 167v497q0 115 18 190
t60 133q96 131 295 131t294 -131q51 -70 65 -156q13 -77 13 -167zM302 927v-489q0 -98 8 -134q29 -126 153 -126q95 0 133 74q21 40 24 88q3 40 3 98v489q0 99 -8 135q-28 125 -152 125q-96 0 -134 -74q-21 -40 -24 -87q-3 -41 -3 -99z" />
    <glyph glyph-name="OE" unicode="&#x152;" horiz-adv-x="1267" 
d="M1229 1365v-195h-407v-359h300v-195h-300v-421h407v-195h-741q-398 0 -395 427v511q-3 427 395 427h741zM610 1170h-103q-109 -1 -156 -65q-30 -41 -38 -95q-8 -56 -8 -130v-395q0 -90 10 -139.5t36 -85.5q47 -64 156 -65h103v975z" />
    <glyph glyph-name="oe" unicode="&#x153;" horiz-adv-x="1267" 
d="M1229 1365v-195h-407v-359h300v-195h-300v-421h407v-195h-741q-398 0 -395 427v511q-3 427 395 427h741zM610 1170h-103q-109 -1 -156 -65q-30 -41 -38 -95q-8 -56 -8 -130v-395q0 -90 10 -139.5t36 -85.5q47 -64 156 -65h103v975z" />
    <glyph glyph-name="endash" unicode="&#x2013;" 
d="M763 604v-171h-686v171h686z" />
    <glyph glyph-name="emdash" unicode="&#x2014;" horiz-adv-x="1030" 
d="M1030 604v-171h-1030v171h1030z" />
    <glyph glyph-name="quotedblleft" unicode="&#x201c;" horiz-adv-x="662" 
d="M382 865v218l119 282h79l-91 -282h91v-218h-198zM82 865v218l119 282h79l-91 -282h91v-218h-198z" />
    <glyph glyph-name="quotedblright" unicode="&#x201d;" horiz-adv-x="662" 
d="M280 1365v-218l-119 -283h-79l91 283h-91v218h198zM580 1365v-218l-120 -283h-78l91 283h-91v218h198z" />
    <glyph glyph-name="quoteleft" unicode="&#x2018;" horiz-adv-x="362" 
d="M82 865v218l119 282h79l-91 -282h91v-218h-198z" />
    <glyph glyph-name="quoteright" unicode="&#x2019;" horiz-adv-x="362" 
d="M280 1365v-218l-119 -283h-79l91 283h-91v218h198z" />
    <glyph glyph-name="divide" unicode="&#xf7;" 
d="M763 780v-162h-686v162h686zM504 508v-187h-169v187h169zM504 1072v-187h-169v187h169z" />
    <glyph glyph-name="ydieresis" unicode="&#xff;" horiz-adv-x="902" 
d="M552 533v-533h-212v533l-306 832h233l182 -577l189 577h229zM383 1656v-182h-177v182h177zM698 1656v-182h-177v182h177z" />
    <glyph glyph-name="Ydieresis" unicode="&#x178;" horiz-adv-x="902" 
d="M383 1656v-182h-177v182h177zM698 1656v-182h-177v182h177zM552 533v-533h-212v533l-306 832h233l182 -577l189 577h229z" />
    <glyph glyph-name="currency" unicode="&#xa4;" horiz-adv-x="853" 
d="M689 547l87 -86l-118 -118l-84 84q-70 -39 -147 -39q-74 0 -148 40l-88 -88l-114 116l90 89q-34 71 -34 135q0 74 39 149l-87 86l118 118l89 -89q72 33 136 33q68 0 136 -34l97 97l115 -115l-94 -94q39 -71 39 -149q0 -69 -32 -135zM423 837q-57 0 -101 -42
q-52 -48 -52 -113q0 -58 38 -103q46 -55 119 -55q60 0 106 44q50 46 50 111q0 64 -43 108q-48 50 -117 50z" />
    <glyph glyph-name="guilsinglleft" unicode="&#x2039;" horiz-adv-x="347" 
d="M278 191l-210 174v294l210 174v-245l-78 -76l78 -76v-245z" />
    <glyph glyph-name="guilsinglright" unicode="&#x203a;" horiz-adv-x="347" 
d="M68 833l210 -174v-294l-210 -174v245l78 76l-78 76v245z" />
    <glyph glyph-name="daggerdbl" unicode="&#x2021;" 
d="M516 1365v-337h257v-171h-257v-349h257v-171h-257v-337h-191v337h-258v171h258v349h-258v171h258v337h191z" />
    <glyph glyph-name="quotesinglbase" unicode="&#x201a;" horiz-adv-x="362" 
d="M280 218v-218l-119 -282h-79l91 282h-91v218h198z" />
    <glyph glyph-name="quotedblbase" unicode="&#x201e;" horiz-adv-x="662" 
d="M280 218v-218l-119 -282h-79l91 282h-91v218h198zM580 218v-218l-120 -282h-78l91 282h-91v218h198z" />
    <glyph glyph-name="perthousand" unicode="&#x2030;" horiz-adv-x="1578" 
d="M438 1140v-253q0 -239 -188 -239q-189 0 -189 239v253q0 239 189 239q188 0 188 -239zM183 1162v-297q0 -57 12 -78q16 -30 55 -30q38 0 54 30q12 21 12 78v297q0 57 -12 78q-16 30 -54 30q-39 0 -55 -30q-12 -21 -12 -78zM775 1365h113l-564 -1365h-114zM1038 478v-253
q0 -239 -189 -239t-189 239v253q0 239 189 239t189 -239zM782 500v-297q0 -56 12 -78q16 -30 55 -30t55 30q12 21 12 78v297q0 57 -12 78q-16 30 -55 30q-40 0 -55 -30q-12 -21 -12 -78zM1516 478v-253q0 -239 -189 -239t-189 239v253q0 239 189 239t189 -239zM1260 500
v-297q0 -56 12 -78q16 -30 55 -30t55 30q12 21 12 78v297q0 57 -12 78q-16 30 -55 30q-40 0 -55 -30q-12 -21 -12 -78z" />
    <glyph glyph-name="Acircumflex" unicode="&#xc2;" horiz-adv-x="923" 
d="M356 1656h214l128 -182h-171l-64 69l-64 -69h-172zM608 297h-291l-55 -297h-207l262 1365h290l276 -1365h-217zM572 492l-112 611l-109 -611h221z" />
    <glyph glyph-name="Ecircumflex" unicode="&#xca;" horiz-adv-x="764" 
d="M304 1656h214l128 -182h-171l-64 69l-64 -69h-172zM723 1365v-195h-407v-359h300v-195h-300v-421h407v-195h-619v1365h619z" />
    <glyph glyph-name="Aacute" unicode="&#xc1;" horiz-adv-x="923" 
d="M365 1474l93 182h199l-148 -182h-144zM608 297h-291l-55 -297h-207l262 1365h290l276 -1365h-217zM572 492l-112 611l-109 -611h221z" />
    <glyph glyph-name="Edieresis" unicode="&#xcb;" horiz-adv-x="764" 
d="M355 1656v-182h-177v182h177zM670 1656v-182h-177v182h177zM723 1365v-195h-407v-359h300v-195h-300v-421h407v-195h-619v1365h619z" />
    <glyph glyph-name="Egrave" unicode="&#xc8;" horiz-adv-x="764" 
d="M723 1365v-195h-407v-359h300v-195h-300v-421h407v-195h-619v1365h619zM468 1474h-144l-148 182h198z" />
    <glyph glyph-name="Iacute" unicode="&#xcd;" horiz-adv-x="419" 
d="M113 1474l93 182h199l-148 -182h-144zM316 1365v-1365h-212v1365h212z" />
    <glyph glyph-name="Icircumflex" unicode="&#xce;" horiz-adv-x="419" 
d="M104 1656h214l128 -182h-171l-64 69l-64 -69h-172zM316 1365v-1365h-212v1365h212z" />
    <glyph glyph-name="Idieresis" unicode="&#xcf;" horiz-adv-x="419" 
d="M155 1656v-182h-177v182h177zM442 1656v-182h-177v182h177zM316 1365v-1365h-212v1365h212z" />
    <glyph glyph-name="Igrave" unicode="&#xcc;" horiz-adv-x="419" 
d="M316 1365v-1365h-212v1365h212zM295 1474h-144l-148 182h198z" />
    <glyph glyph-name="Oacute" unicode="&#xd3;" horiz-adv-x="926" 
d="M366 1474l93 182h199l-148 -182h-144zM835 931v-497q0 -115 -18 -190t-60 -133q-95 -131 -294 -131q-200 0 -295 131q-50 70 -65 156q-13 77 -13 167v497q0 115 18 190t60 133q96 131 295 131t294 -131q51 -70 65 -156q13 -77 13 -167zM302 927v-489q0 -98 8 -134
q29 -126 153 -126q95 0 133 74q21 40 24 88q3 40 3 98v489q0 99 -8 135q-28 125 -152 125q-96 0 -134 -74q-21 -40 -24 -87q-3 -41 -3 -99z" />
    <glyph glyph-name="Ocircumflex" unicode="&#xd4;" horiz-adv-x="926" 
d="M357 1656h214l128 -182h-171l-64 69l-64 -69h-172zM835 931v-497q0 -115 -18 -190t-60 -133q-95 -131 -294 -131q-200 0 -295 131q-50 70 -65 156q-13 77 -13 167v497q0 115 18 190t60 133q96 131 295 131t294 -131q51 -70 65 -156q13 -77 13 -167zM302 927v-489
q0 -98 8 -134q29 -126 153 -126q95 0 133 74q21 40 24 88q3 40 3 98v489q0 99 -8 135q-28 125 -152 125q-96 0 -134 -74q-21 -40 -24 -87q-3 -41 -3 -99z" />
    <glyph glyph-name="Ograve" unicode="&#xd2;" horiz-adv-x="926" 
d="M835 931v-497q0 -115 -18 -190t-60 -133q-95 -131 -294 -131q-200 0 -295 131q-50 70 -65 156q-13 77 -13 167v497q0 115 18 190t60 133q96 131 295 131t294 -131q51 -70 65 -156q13 -77 13 -167zM302 927v-489q0 -98 8 -134q29 -126 153 -126q95 0 133 74q21 40 24 88
q3 40 3 98v489q0 99 -8 135q-28 125 -152 125q-96 0 -134 -74q-21 -40 -24 -87q-3 -41 -3 -99zM548 1474h-144l-148 182h198z" />
    <glyph glyph-name="Uacute" unicode="&#xda;" horiz-adv-x="930" 
d="M368 1474l93 182h199l-148 -182h-144zM614 1365h212v-925q0 -165 -29 -245q-78 -215 -332 -215q-189 0 -282 123q-54 71 -67 159q-12 79 -12 178v925h212v-959q0 -116 30 -167q36 -61 119 -61t119 61q30 50 30 167v959z" />
    <glyph glyph-name="Ucircumflex" unicode="&#xdb;" horiz-adv-x="930" 
d="M359 1656h214l128 -182h-171l-64 69l-64 -69h-172zM614 1365h212v-925q0 -165 -29 -245q-78 -215 -332 -215q-189 0 -282 123q-54 71 -67 159q-12 79 -12 178v925h212v-959q0 -116 30 -167q36 -61 119 -61t119 61q30 50 30 167v959z" />
    <glyph glyph-name="Ugrave" unicode="&#xd9;" horiz-adv-x="930" 
d="M614 1365h212v-925q0 -165 -29 -245q-78 -215 -332 -215q-189 0 -282 123q-54 71 -67 159q-12 79 -12 178v925h212v-959q0 -116 30 -167q36 -61 119 -61t119 61q30 50 30 167v959zM551 1474h-144l-148 182h198z" />
    <glyph glyph-name="circumflex" unicode="&#x2c6;" horiz-adv-x="1024" 
d="M406 1656h214l128 -182h-171l-64 69l-64 -69h-172z" />
    <glyph glyph-name="tilde" unicode="&#x2dc;" horiz-adv-x="1024" 
d="M307 1484v142q56 30 118 30q43 0 91 -16q67 -23 102 -23q39 0 99 35v-142q-61 -35 -99 -35q-35 0 -102 23q-48 16 -91 16q-62 0 -118 -30z" />
    <glyph glyph-name="cedilla" unicode="&#xb8;" horiz-adv-x="1024" 
d="M594 -95v-139l-45 -114h-97l36 114h-58v139h164z" />
    <glyph glyph-name="Scaron" unicode="&#x160;" horiz-adv-x="873" 
d="M545 1474h-214l-129 182h172l64 -69l64 69h171zM821 1044l-202 -60q-49 203 -182 203q-57 0 -96 -38q-41 -40 -41 -101q0 -75 57 -137q37 -40 181 -150q147 -114 204 -183q88 -107 88 -251q0 -151 -101 -248q-103 -99 -273 -99q-350 0 -415 384l202 59q42 -245 213 -245
q72 0 114 44q42 43 42 112q0 72 -53 132q-44 51 -150 134q-154 120 -185 150q-142 137 -142 299q0 161 115 255q97 81 241 81q295 0 383 -341z" />
    <glyph glyph-name="scaron" unicode="&#x161;" horiz-adv-x="873" 
d="M545 1474h-214l-129 182h172l64 -69l64 69h171zM821 1044l-202 -60q-49 203 -182 203q-57 0 -96 -38q-41 -40 -41 -101q0 -75 57 -137q37 -40 181 -150q147 -114 204 -183q88 -107 88 -251q0 -151 -101 -248q-103 -99 -273 -99q-350 0 -415 384l202 59q42 -245 213 -245
q72 0 114 44q42 43 42 112q0 72 -53 132q-44 51 -150 134q-154 120 -185 150q-142 137 -142 299q0 161 115 255q97 81 241 81q295 0 383 -341z" />
    <glyph glyph-name="Zcaron" unicode="&#x17d;" horiz-adv-x="797" 
d="M507 1474h-214l-129 182h172l64 -69l64 69h171zM756 195v-195h-715v199l478 971h-433v195h664v-195l-476 -975h482z" />
    <glyph glyph-name="zcaron" unicode="&#x17e;" horiz-adv-x="797" 
d="M507 1474h-214l-129 182h172l64 -69l64 69h171zM756 195v-195h-715v199l478 971h-433v195h664v-195l-476 -975h482z" />
    <glyph glyph-name="brokenbar" unicode="&#xa6;" horiz-adv-x="1024" 
d="M408 1365h208v-696h-208v696zM408 314h208v-655h-208v655z" />
    <glyph glyph-name="Eth" unicode="&#xd0;" horiz-adv-x="929" 
d="M111 0v616h-48v195h48v554h334q397 0 394 -427v-511q3 -427 -394 -427h-334zM323 195h103q109 1 155 65q30 41 38 95q8 56 8 130v395q0 90 -10 139.5t-36 85.5q-46 64 -155 65h-103v-359h157v-195h-157v-421z" />
    <glyph glyph-name="eth" unicode="&#xf0;" horiz-adv-x="929" 
d="M111 0v616h-48v195h48v554h334q397 0 394 -427v-511q3 -427 -394 -427h-334zM323 195h103q109 1 155 65q30 41 38 95q8 56 8 130v395q0 90 -10 139.5t-36 85.5q-46 64 -155 65h-103v-359h157v-195h-157v-421z" />
    <glyph glyph-name="Yacute" unicode="&#xdd;" horiz-adv-x="902" 
d="M354 1474l93 182h199l-148 -182h-144zM552 533v-533h-212v533l-306 832h233l182 -577l189 577h229z" />
    <glyph glyph-name="yacute" unicode="&#xfd;" horiz-adv-x="902" 
d="M552 533v-533h-212v533l-306 832h233l182 -577l189 577h229zM354 1474l93 182h199l-148 -182h-144z" />
    <glyph glyph-name="Thorn" unicode="&#xde;" horiz-adv-x="890" 
d="M316 342v-342h-212v1365h212v-211h139q103 0 171 -20.5t116 -67.5q108 -104 108 -318t-108 -318q-48 -47 -115.5 -67.5t-171.5 -20.5h-139zM316 537h92q116 0 164 37q60 45 60 174t-60 174q-47 37 -164 37h-92v-422z" />
    <glyph glyph-name="thorn" unicode="&#xfe;" horiz-adv-x="890" 
d="M316 342v-342h-212v1365h212v-211h139q103 0 171 -20.5t116 -67.5q108 -104 108 -318t-108 -318q-48 -47 -115.5 -67.5t-171.5 -20.5h-139zM316 537h92q116 0 164 37q60 45 60 174t-60 174q-47 37 -164 37h-92v-422z" />
    <glyph glyph-name="multiply" unicode="&#xd7;" 
d="M603 998l115 -115l-184 -184l181 -180l-117 -118l-181 181l-184 -184l-115 115l184 184l-177 177l117 118l177 -178z" />
    <glyph glyph-name="onesuperior" unicode="&#xb9;" horiz-adv-x="567" 
d="M382 1365v-819h-140v617h-127v85q128 51 183 117h84z" />
    <glyph glyph-name="twosuperior" unicode="&#xb2;" horiz-adv-x="567" 
d="M491 669v-122h-440v118q168 200 228 284q54 76 71 125q14 40 14 84q0 95 -79 95q-85 0 -85 -105q0 -12 1 -31h-141v26q0 120 63 177q64 57 167 57q100 0 160 -58q59 -57 59 -162q0 -78 -35 -149q-34 -69 -157 -220q-69 -84 -97 -119h271z" />
    <glyph glyph-name="threesuperior" unicode="&#xb3;" horiz-adv-x="567" 
d="M239 914v125q72 2 93 24q24 26 24 81q0 109 -76 109q-77 0 -77 -88q0 -6 1 -19h-140q-1 15 -1 22q0 95 65 154q59 55 156 55q91 0 146 -51q64 -60 64 -180q0 -128 -90 -167q105 -33 105 -189q0 -125 -61 -189q-64 -67 -170 -67q-96 0 -159 57q-67 61 -67 179v19h145
q0 -66 14 -92q22 -39 69 -39q84 0 84 129q0 77 -33 104q-26 21 -92 23z" />
    <glyph glyph-name="onehalf" unicode="&#xbd;" horiz-adv-x="1379" 
d="M382 1365v-819h-140v617h-127v85q128 51 183 117h84zM376 -68l511 1502h116l-521 -1502h-106zM1302 122v-122h-440v118q168 200 228 284q54 77 71 126q14 40 14 84q0 95 -79 95q-85 0 -85 -105q0 -13 1 -31h-141v26q0 120 63 177q64 57 167 57q100 0 160 -58
q59 -57 59 -162q0 -78 -35 -149q-34 -70 -157 -221q-68 -83 -97 -119h271z" />
    <glyph glyph-name="onequarter" unicode="&#xbc;" horiz-adv-x="1379" 
d="M382 1365v-819h-140v617h-127v85q128 51 183 117h84zM376 -68l511 1502h116l-521 -1502h-106zM1109 205h-271v134l262 480h149v-492h99v-122h-99v-205h-140v205zM1113 323v296l-147 -296h147z" />
    <glyph glyph-name="threequarters" unicode="&#xbe;" horiz-adv-x="1379" 
d="M239 914v125q72 2 93 24q24 26 24 81q0 109 -76 109q-77 0 -77 -88q0 -6 1 -19h-140q-1 15 -1 22q0 95 65 154q59 55 156 55q91 0 146 -51q64 -60 64 -180q0 -128 -90 -167q105 -33 105 -189q0 -125 -61 -189q-64 -67 -170 -67q-96 0 -159 57q-67 61 -67 179v19h145
q0 -66 14 -92q22 -39 69 -39q84 0 84 129q0 77 -33 104q-26 21 -92 23zM375 -68l512 1502h116l-521 -1502h-107zM1108 205h-270v134l261 480h149v-492h99v-122h-99v-205h-140v205zM1112 323v296l-146 -296h146z" />
    <glyph glyph-name="nonbreakingspace" unicode="&#xa0;" horiz-adv-x="314" 
 />
    <glyph glyph-name="sfthyphen" unicode="&#xad;" horiz-adv-x="294" 
d="M294 604v-171h-294v171h294z" />
    <glyph glyph-name="macron" unicode="&#xaf;" horiz-adv-x="1024" 
d="M0 1762h1024v-127h-1024v127z" />
    <glyph glyph-name="periodcentered" unicode="&#xb7;" horiz-adv-x="355" 
d="M277 628v-218h-198v218h198z" />
    <glyph glyph-name="glyph266" horiz-adv-x="1024" 
d="M597 1474h-144l-148 182h198z" />
    <glyph glyph-name="Euro" unicode="&#x20ac;" horiz-adv-x="909" 
d="M829 1217l-176 -113q-44 78 -137 83q-87 0 -125 -67q-23 -42 -28 -90q-4 -46 -4 -106l1 -63h424l-56 -111h-369v-109h337l-53 -109h-284v-62q0 -143 23 -204q34 -88 137 -88q80 -1 152 80l171 -124q-122 -154 -323 -154q-213 0 -306 152q-49 79 -58 175q-8 80 -8 192v47
h-81v95h81v109h-81v106h81v24q0 196 25 272q44 136 160 193q80 40 184 40q179 -3 313 -168z" />
  </font>
</defs>
</svg>
